<svg width="131" height="131" viewBox="0 0 131 131" fill="none" xmlns="http://www.w3.org/2000/svg">
<path d="M49.128 13.4801C48.8978 13.5413 48.6978 13.5226 48.5279 13.4241C48.3675 13.323 48.2554 13.1526 48.1917 12.9128L45.7167 3.60664L52.2037 1.88144L52.3874 2.57186L46.6914 4.08666L47.7243 7.97024L52.9887 6.5702L53.1723 7.26061L47.9079 8.66066L48.9981 12.76L54.694 11.2452L54.8814 11.95L49.128 13.4801Z" fill="white"/>
<path d="M41.4779 16.5389C41.2601 16.6352 41.0616 16.6524 40.8824 16.5906C40.7083 16.5158 40.571 16.3649 40.4707 16.138L36.5701 7.31742L37.3187 6.98635L41.2314 15.8342L46.404 13.5468L46.7049 14.2274L41.4779 16.5389Z" fill="white"/>
<path d="M35.8957 16.1021L31.9714 18.6673L32.6734 21.8358L31.9632 22.3L29.5891 11.405L29.913 11.1932C30.1123 11.0629 30.346 11.094 30.6139 11.2863L39.2139 17.5604L38.5038 18.0246L35.8957 16.1021ZM31.8004 17.9433L35.3011 15.655L30.5032 12.1233L30.4907 12.1314L31.8004 17.9433Z" fill="white"/>
<path d="M27.651 26.4048C27.1886 26.8401 26.6714 27.1158 26.0993 27.2319C25.5344 27.3412 24.964 27.2854 24.3881 27.0644C23.8054 26.8362 23.2623 26.4548 22.759 25.9202L20.5248 23.5469C20.0215 23.0123 19.6769 22.4509 19.4911 21.8627C19.3126 21.2676 19.2985 20.6881 19.4488 20.1241C19.6065 19.5532 19.9201 19.0468 20.3897 18.6047L21.5384 17.5233C21.9863 17.1016 22.4755 16.8251 23.0059 16.6937C23.5363 16.5623 24.0621 16.5851 24.5832 16.7623C25.0975 16.9323 25.5689 17.2448 25.9974 17.7L25.423 18.2407C24.9197 17.7061 24.3597 17.4224 23.743 17.3898C23.1195 17.3499 22.5512 17.5714 22.0383 18.0543L20.8896 19.1357C20.3549 19.639 20.1085 20.2458 20.1502 20.956C20.192 21.6662 20.5155 22.3428 21.1208 22.9858L23.3551 25.3591C23.9672 26.0093 24.6192 26.3835 25.3112 26.4816C26.0036 26.5657 26.6135 26.3594 27.1409 25.8629L28.3113 24.7611C28.8387 24.2646 29.0947 23.6897 29.0793 23.0365C29.0571 22.376 28.7672 21.7495 28.2095 21.1571L28.7838 20.6164C29.2531 21.1149 29.5705 21.6474 29.7359 22.214C29.9017 22.7665 29.9062 23.3141 29.7495 23.8569C29.5931 24.3857 29.2837 24.8677 28.8214 25.303L27.651 26.4048Z" fill="white"/>
<path d="M21.3469 33.6572C20.8183 34.3646 20.186 34.7715 19.4499 34.878C18.7198 34.9765 17.9931 34.7555 17.2698 34.215L17.7509 33.5712C18.2914 33.9751 18.8334 34.1448 19.3771 34.0803C19.9128 34.0099 20.3736 33.7164 20.7597 33.1998L21.7576 31.8645C22.1318 31.3637 22.3165 30.8762 22.3117 30.4019C22.3128 29.9197 22.1266 29.539 21.753 29.2598L20.9423 28.654C20.6403 28.4283 20.2988 28.3465 19.9179 28.4087C19.537 28.4709 19.1662 28.6769 18.8057 29.0268L16.8532 30.8937C16.3302 31.3947 15.7879 31.6893 15.2265 31.7776C14.671 31.858 14.1548 31.7199 13.6779 31.3636L12.9864 30.8468C12.4379 30.437 12.1512 29.9007 12.1263 29.2379C12.1013 28.5751 12.3413 27.906 12.8461 27.2303L13.8529 25.8831C14.334 25.2393 14.9148 24.8682 15.5953 24.7698C16.2818 24.6634 16.9429 24.8478 17.5788 25.323L17.0977 25.9668C16.6367 25.6223 16.1631 25.4852 15.677 25.5555C15.189 25.6119 14.7756 25.8666 14.4371 26.3197L13.4303 27.6669C13.068 28.1518 12.8922 28.6273 12.9029 29.0937C12.9117 29.5461 13.1028 29.9119 13.4764 30.1911L14.1679 30.7078C14.4858 30.9454 14.8323 31.0371 15.2072 30.9829C15.5822 30.9286 15.947 30.7305 16.3016 30.3886L18.2571 28.5426C18.8 28.0316 19.3482 27.729 19.9017 27.6348C20.4611 27.5326 20.9713 27.6538 21.4323 27.9983L22.2431 28.6041C22.7994 29.0199 23.0911 29.5661 23.1181 30.2428C23.1371 30.9135 22.8853 31.5986 22.3626 32.298L21.3469 33.6572Z" fill="white"/>
<path d="M4.73806 44.4907L3.6326 47.6045L2.95936 47.3654L5.44414 40.3665L6.11739 40.6055L5.01193 43.7193L14.1568 46.9659L13.8829 47.7374L4.73806 44.4907Z" fill="white"/>
<path d="M0.904963 57.2994L1.77663 52.4809C1.90734 51.7583 2.21259 51.2136 2.6924 50.8466C3.16244 50.4779 3.72455 50.3527 4.37873 50.4711L6.00443 50.7652C6.71719 50.8941 7.25087 51.2326 7.60547 51.7808C7.9503 52.3272 8.05294 52.986 7.91341 53.7574L7.2166 57.6093L11.3028 58.3485L11.1571 59.154L0.904963 57.2994ZM7.17846 53.6396C7.27561 53.1026 7.20198 52.6456 6.95759 52.2686C6.7132 51.8916 6.34202 51.6581 5.84406 51.568L4.21837 51.2739C3.78876 51.1962 3.41476 51.2849 3.09638 51.5399C2.77976 51.7851 2.57818 52.1469 2.49163 52.6253L1.76833 56.6237L6.48431 57.4768L7.17846 53.6396Z" fill="white"/>
<path d="M10.9931 66.3566C10.9924 66.9619 10.8578 67.4975 10.5894 67.9636C10.311 68.4296 9.92357 68.7913 9.42715 69.0487C8.92081 69.2962 8.34517 69.4195 7.70021 69.4187L0.451904 69.4102L0.452873 68.5916L7.71606 68.6002C8.47017 68.6011 9.08063 68.3984 9.54747 67.9921C10.0143 67.5759 10.2481 67.0305 10.2489 66.3557L10.2509 64.7334C10.2517 64.0587 10.0241 63.5177 9.56813 63.1103C9.10227 62.693 8.48733 62.4839 7.72331 62.483L0.460116 62.4744L0.461085 61.6558L7.70939 61.6644C8.35435 61.6652 8.92969 61.7948 9.43543 62.0534C9.93126 62.3021 10.3178 62.6597 10.5951 63.1264C10.8624 63.5931 10.9958 64.129 10.995 64.7343L10.9931 66.3566Z" fill="white"/>
<path d="M2.13634 80.7037L1.25627 75.8716C1.12648 75.159 1.22259 74.5515 1.5446 74.0491C1.85684 73.5484 2.33998 73.2385 2.99402 73.1194L4.13616 72.9114C4.65353 72.8172 5.14256 72.8996 5.60324 73.1586C6.05417 73.4194 6.40351 73.8146 6.65128 74.3444L6.66592 74.3417C6.75901 74.0222 6.95017 73.7151 7.23941 73.4203C7.52864 73.1256 7.88622 72.8739 8.31215 72.6652L11.0181 71.3252L11.1675 72.1451L8.46149 73.4852C7.97256 73.7356 7.60791 74.0592 7.36752 74.456C7.12535 74.843 7.04338 75.2513 7.12161 75.6808L7.70032 78.8583L12.2396 78.0315L12.3862 78.8369L2.13634 80.7037ZM6.31611 75.3283C6.21121 74.7523 5.97545 74.3162 5.60883 74.0199C5.23245 73.7253 4.79045 73.6243 4.28283 73.7168L3.11142 73.9301C2.6819 74.0083 2.36601 74.2121 2.16377 74.5414C1.95176 74.8725 1.88931 75.2772 1.97643 75.7556L2.70716 79.7677L6.98283 78.9889L6.31611 75.3283Z" fill="white"/>
<path d="M14.6217 85.1692C14.9266 85.9979 14.9231 86.7499 14.6112 87.425C14.2959 88.0909 13.7145 88.5797 12.8671 88.8915L12.5895 88.1372C13.2228 87.9042 13.6605 87.5423 13.9028 87.0513C14.1357 86.5639 14.1408 86.0175 13.9181 85.4122L13.3425 83.8478C13.1266 83.2611 12.8185 82.8406 12.4183 82.5861C12.0146 82.3223 11.5939 82.2709 11.1562 82.432L10.2064 82.7815C9.85256 82.9117 9.5979 83.1534 9.44242 83.5067C9.28694 83.8599 9.25762 84.2831 9.35445 84.7761L9.85544 87.4305C9.99041 88.1421 9.9419 88.7573 9.70991 89.2762C9.4745 89.7857 9.07743 90.1433 8.51871 90.3489L7.70857 90.647C7.06604 90.8834 6.46014 90.8315 5.89086 90.4912C5.32157 90.1509 4.8913 89.5849 4.60004 88.7934L4.01924 87.2151C3.74169 86.4608 3.74711 85.7716 4.03549 85.1474C4.32045 84.5139 4.83541 84.0601 5.58036 83.7859L5.85792 84.5402C5.31782 84.7389 4.94478 85.0612 4.73879 85.5071C4.52006 85.947 4.50836 86.4324 4.70367 86.9632L5.28447 88.5416C5.49349 89.1096 5.79642 89.5162 6.19325 89.7614C6.57734 90.0007 6.98822 90.0398 7.42588 89.8787L8.23602 89.5806C8.6085 89.4436 8.87419 89.2031 9.0331 88.8591C9.192 88.5152 9.22475 88.1014 9.13135 87.6177L8.64946 84.972C8.51695 84.2384 8.56203 83.6139 8.78471 83.0984C9.00396 82.5737 9.38363 82.212 9.92373 82.0132L10.8735 81.6637C11.5254 81.4239 12.1423 81.477 12.7243 81.8232C13.297 82.1728 13.7342 82.7574 14.0357 83.5768L14.6217 85.1692Z" fill="white"/>
<path d="M7.71676 95.4625L7.34535 94.733L16.6298 90.0059L17.0012 90.7354L7.71676 95.4625Z" fill="white"/>
<path d="M21.9158 98.6512C22.0495 98.8483 22.1019 99.0405 22.073 99.2279C22.0304 99.4126 21.9105 99.5718 21.7134 99.7054L13.7178 105.125L11.4045 101.713C11.0037 101.121 10.7651 100.522 10.6889 99.9141C10.6127 99.3065 10.7005 98.7375 10.9524 98.2072C11.2042 97.6768 11.6012 97.228 12.1433 96.8605L14.9892 94.9314C15.983 94.2578 16.9043 93.9989 17.7531 94.1547C18.5964 94.3023 19.3437 94.8566 19.9951 95.8176L21.9158 98.6512ZM19.3875 96.2475C18.8808 95.5 18.2982 95.0738 17.6397 94.9688C16.9674 94.8612 16.237 95.0746 15.4485 95.609L12.6026 97.5381C11.9537 97.9779 11.5769 98.545 11.4722 99.2393C11.3619 99.9255 11.5433 100.618 12.0166 101.316L13.8621 104.038L21.2664 99.0195L19.3875 96.2475Z" fill="white"/>
<path d="M34.5279 110.673C34.7168 110.819 34.827 110.985 34.8586 111.171C34.8763 111.36 34.8126 111.549 34.6676 111.738L28.7841 119.399L25.5144 116.888C24.9478 116.453 24.5326 115.959 24.269 115.406C24.0054 114.853 23.9097 114.285 23.9819 113.703C24.054 113.12 24.2895 112.569 24.6884 112.05L26.7825 109.323C27.5138 108.371 28.3068 107.835 29.1615 107.716C30.0084 107.59 30.8922 107.881 31.8129 108.588L34.5279 110.673ZM31.3715 109.188C30.6553 108.638 29.9682 108.417 29.3101 108.524C28.638 108.634 28.0119 109.066 27.4317 109.822L25.3376 112.548C24.8602 113.17 24.681 113.827 24.8001 114.519C24.9114 115.205 25.3015 115.805 25.9704 116.318L28.5791 118.322L34.0274 111.227L31.3715 109.188Z" fill="white"/>
<path d="M41.6778 114.778C41.8881 114.89 42.0243 115.035 42.0865 115.214C42.1352 115.398 42.1014 115.599 41.985 115.818L37.4601 124.335L36.7372 123.951L41.2761 115.407L36.2814 112.754L36.6305 112.097L41.6778 114.778Z" fill="white"/>
<path d="M41.7712 126.137L41.0108 125.834L44.8673 116.155L45.6277 116.458L41.7712 126.137Z" fill="white"/>
<path d="M52.6589 118.547C53.2451 118.698 53.7306 118.961 54.1154 119.337C54.4978 119.722 54.7521 120.187 54.8782 120.732C54.9923 121.284 54.969 121.872 54.8082 122.497L53.0013 129.516L52.2085 129.312L54.0192 122.278C54.2071 121.548 54.1623 120.906 53.8846 120.353C53.5972 119.798 53.1269 119.436 52.4734 119.268L50.9023 118.863C50.2489 118.695 49.6683 118.781 49.1606 119.122C48.6407 119.47 48.2856 120.014 48.0951 120.753L46.2845 127.787L45.4917 127.583L47.2986 120.564C47.4594 119.939 47.7278 119.414 48.1038 118.988C48.4677 118.57 48.9101 118.284 49.431 118.131C49.9494 117.988 50.5017 117.992 51.0879 118.143L52.6589 118.547Z" fill="white"/>
<path d="M64.5162 120.249C64.7439 120.264 64.9222 120.346 65.0513 120.495C65.1803 120.643 65.2369 120.831 65.2212 121.058L64.5556 130.695L60.2347 130.396C59.4131 130.34 58.7689 130.091 58.302 129.651C57.8252 129.21 57.6097 128.659 57.6555 127.995L57.7139 127.149C57.742 126.743 57.857 126.373 58.0592 126.039C58.2606 125.715 58.5163 125.469 58.8262 125.301L58.8273 125.286C58.3405 125.133 57.9617 124.859 57.6907 124.462C57.419 124.075 57.3003 123.634 57.3345 123.139L57.3898 122.338C57.4432 121.565 57.7387 120.959 58.2763 120.519C58.8133 120.089 59.5025 119.902 60.3439 119.961L64.5162 120.249ZM60.269 125.58C59.784 125.546 59.3821 125.678 59.0632 125.974C58.7444 126.27 58.5668 126.681 58.5306 127.205L58.4721 128.052C58.442 128.487 58.5956 128.856 58.9328 129.158C59.2601 129.459 59.7109 129.629 60.285 129.669L63.7892 129.911L64.0702 125.842L60.269 125.58ZM60.3668 120.708C59.7531 120.666 59.2518 120.795 58.863 121.097C58.4636 121.407 58.2448 121.84 58.2065 122.394L58.1511 123.196C58.1197 123.651 58.2577 124.029 58.5652 124.328C58.8621 124.637 59.2729 124.81 59.7976 124.846L64.1184 125.145L64.4056 120.987L60.3668 120.708Z" fill="white"/>
<path d="M80.6976 118.063C80.9289 118.006 81.1286 118.029 81.2965 118.131C81.4547 118.236 81.5633 118.408 81.6221 118.649L83.906 128.004L77.385 129.596L77.2156 128.902L82.9413 127.504L81.9882 123.6L76.6963 124.892L76.5268 124.198L81.8188 122.906L80.8127 118.786L75.087 120.183L74.914 119.475L80.6976 118.063Z" fill="white"/>
<path d="M88.4087 115.161C88.6284 115.07 88.8272 115.056 89.0051 115.122C89.1777 115.2 89.3118 115.354 89.4075 115.583L93.1267 124.481L92.3714 124.797L88.6407 115.871L83.4224 118.052L83.1354 117.365L88.4087 115.161Z" fill="white"/>
<path d="M93.9808 115.712L97.9568 113.228L97.3199 110.046L98.0393 109.596L100.19 120.538L99.8617 120.743C99.6598 120.869 99.4268 120.833 99.1628 120.635L90.6932 114.186L91.4127 113.737L93.9808 115.712ZM98.1129 113.955L94.5661 116.172L99.2907 119.801L99.3034 119.793L98.1129 113.955Z" fill="white"/>
<path d="M102.435 105.581C102.906 105.155 103.429 104.89 104.003 104.786C104.57 104.688 105.139 104.755 105.71 104.988C106.288 105.228 106.823 105.621 107.316 106.165L109.501 108.584C109.993 109.129 110.326 109.697 110.5 110.289C110.666 110.887 110.668 111.467 110.507 112.028C110.337 112.596 110.013 113.095 109.535 113.528L108.364 114.585C107.908 114.998 107.413 115.264 106.88 115.385C106.347 115.505 105.822 115.472 105.304 115.284C104.794 115.104 104.329 114.781 103.91 114.318L104.495 113.789C104.987 114.334 105.541 114.629 106.157 114.674C106.78 114.726 107.353 114.517 107.875 114.044L109.046 112.987C109.591 112.494 109.85 111.893 109.822 111.182C109.795 110.471 109.486 109.788 108.894 109.133L106.708 106.714C106.11 106.052 105.465 105.664 104.776 105.552C104.085 105.454 103.471 105.647 102.934 106.133L101.741 107.211C101.203 107.696 100.936 108.266 100.938 108.919C100.946 109.58 101.223 110.212 101.769 110.816L101.184 111.345C100.725 110.837 100.418 110.298 100.264 109.728C100.11 109.172 100.117 108.625 100.285 108.085C100.452 107.56 100.771 107.084 101.242 106.658L102.435 105.581Z" fill="white"/>
<path d="M108.886 98.4589C109.429 97.7625 110.069 97.3686 110.808 97.2772C111.54 97.1937 112.262 97.4295 112.974 97.9847L112.479 98.6185C111.947 98.2037 111.409 98.0229 110.864 98.0762C110.327 98.1356 109.86 98.4196 109.464 98.9282L108.439 100.243C108.054 100.736 107.86 101.219 107.855 101.694C107.844 102.176 108.022 102.56 108.39 102.847L109.188 103.469C109.485 103.701 109.825 103.79 110.207 103.736C110.589 103.681 110.964 103.483 111.332 103.14L113.322 101.314C113.855 100.824 114.403 100.54 114.967 100.463C115.524 100.394 116.037 100.543 116.506 100.909L117.187 101.44C117.727 101.861 118.003 102.403 118.014 103.066C118.026 103.729 117.772 104.393 117.253 105.058L116.219 106.385C115.725 107.019 115.137 107.378 114.454 107.462C113.766 107.555 113.109 107.357 112.483 106.869L112.977 106.235C113.431 106.589 113.901 106.735 114.389 106.675C114.878 106.629 115.296 106.382 115.644 105.936L116.678 104.61C117.05 104.133 117.236 103.661 117.235 103.194C117.235 102.742 117.052 102.372 116.684 102.085L116.003 101.555C115.69 101.311 115.346 101.212 114.97 101.258C114.594 101.305 114.225 101.495 113.863 101.83L111.87 103.636C111.317 104.135 110.763 104.427 110.208 104.51C109.646 104.6 109.139 104.469 108.685 104.115L107.887 103.493C107.339 103.065 107.058 102.513 107.045 101.836C107.04 101.165 107.306 100.486 107.843 99.797L108.886 98.4589Z" fill="white"/>
<path d="M125.713 87.9677L126.882 84.8772L127.55 85.13L124.923 92.0766L124.255 91.8238L125.424 88.7333L116.347 85.3001L116.637 84.5345L125.713 87.9677Z" fill="white"/>
<path d="M129.808 75.2402L128.838 80.0398C128.692 80.7595 128.376 81.2979 127.888 81.655C127.411 82.014 126.846 82.1276 126.195 81.9959L124.575 81.6686C123.866 81.5251 123.339 81.1757 122.996 80.6204C122.662 80.0671 122.573 79.4063 122.728 78.6379L123.504 74.8011L119.433 73.9784L119.596 73.1761L129.808 75.2402ZM123.461 78.7708C123.352 79.3057 123.417 79.7641 123.653 80.146C123.89 80.5279 124.256 80.769 124.752 80.8692L126.372 81.1965C126.8 81.283 127.175 81.2021 127.499 80.9536C127.82 80.7149 128.029 80.3573 128.126 79.8808L128.931 75.8981L124.233 74.9486L123.461 78.7708Z" fill="white"/>
<path d="M119.907 65.9783C119.92 65.3732 120.066 64.8404 120.344 64.38C120.632 63.9197 121.026 63.566 121.528 63.3188C122.039 63.0818 122.617 62.9703 123.262 62.9842L130.509 63.1412L130.491 63.9596L123.229 63.8023C122.475 63.786 121.861 63.9761 121.386 64.3728C120.911 64.7793 120.666 65.3199 120.651 65.9944L120.616 67.6164C120.601 68.2909 120.818 68.8365 121.265 69.2531C121.723 69.6799 122.333 69.9015 123.097 69.918L130.358 70.0753L130.341 70.8938L123.094 70.7368C122.449 70.7228 121.877 70.5814 121.376 70.3125C120.886 70.0538 120.507 69.6882 120.239 69.216C119.981 68.7439 119.859 68.2054 119.872 67.6002L119.907 65.9783Z" fill="white"/>
<path d="M129.056 51.8156L129.837 56.6647C129.952 57.3798 129.843 57.9852 129.511 58.4809C129.189 58.9751 128.699 59.275 128.043 59.3807L126.897 59.5653C126.378 59.6489 125.89 59.5565 125.435 59.2881C124.99 59.0182 124.648 58.6158 124.412 58.0811L124.397 58.0835C124.297 58.401 124.1 58.7042 123.805 58.9929C123.509 59.2817 123.147 59.526 122.717 59.7259L119.984 61.0103L119.851 60.1874L122.584 58.9031C123.078 58.6627 123.449 58.3466 123.698 57.9549C123.948 57.5729 124.038 57.1664 123.969 56.7353L123.455 53.5467L118.9 54.2803L118.77 53.4721L129.056 51.8156ZM124.767 57.1043C124.86 57.6823 125.087 58.1231 125.447 58.4269C125.817 58.7291 126.257 58.8391 126.767 58.7571L127.942 58.5678C128.373 58.4984 128.693 58.3011 128.902 57.976C129.121 57.6493 129.192 57.2459 129.114 56.7659L128.466 52.7397L124.175 53.4307L124.767 57.1043Z" fill="white"/>
<path d="M116.664 47.0954C116.377 46.2606 116.395 45.5088 116.721 44.8402C117.05 44.181 117.641 43.7042 118.495 43.4098L118.757 44.1696C118.119 44.3896 117.674 44.7425 117.422 45.2283C117.179 45.711 117.163 46.2571 117.373 46.8668L117.916 48.4427C118.12 49.0336 118.42 49.4604 118.815 49.7231C119.213 49.9951 119.632 50.055 120.073 49.903L121.03 49.573C121.386 49.4501 121.646 49.2136 121.809 48.8636C121.971 48.5136 122.009 48.0912 121.923 47.5963L121.476 44.9321C121.356 44.2179 121.417 43.6038 121.659 43.0898C121.905 42.5852 122.309 42.2359 122.872 42.0417L123.688 41.7603C124.335 41.5371 124.94 41.6014 125.502 41.9533C126.065 42.3052 126.483 42.8798 126.758 43.6771L127.307 45.267C127.569 46.0268 127.549 46.7158 127.248 47.3339C126.95 47.9615 126.426 48.4046 125.676 48.6635L125.413 47.9037C125.958 47.716 126.337 47.4014 126.552 46.9599C126.78 46.5245 126.801 46.0395 126.617 45.5048L126.069 43.9149C125.871 43.3427 125.577 42.93 125.185 42.6767C124.806 42.4296 124.396 42.3821 123.955 42.5341L123.139 42.8156C122.764 42.945 122.493 43.18 122.327 43.5206C122.161 43.8613 122.12 44.2743 122.204 44.7598L122.631 47.4148C122.749 48.151 122.691 48.7744 122.458 49.2852C122.228 49.8053 121.841 50.1592 121.297 50.3469L120.34 50.6769C119.683 50.9033 119.068 50.8375 118.493 50.4795C117.927 50.1182 117.502 49.5249 117.218 48.6994L116.664 47.0954Z" fill="white"/>
<path d="M123.779 36.9456L124.135 37.6825L114.756 42.2185L114.399 41.4816L123.779 36.9456Z" fill="white"/>
<path d="M109.648 33.4669C109.518 33.2671 109.47 33.0738 109.502 32.887C109.549 32.7032 109.672 32.5466 109.872 32.417L117.977 27.162L120.22 30.6213C120.608 31.2208 120.834 31.825 120.898 32.4341C120.962 33.0431 120.863 33.6102 120.6 34.1352C120.337 34.6603 119.931 35.101 119.382 35.4572L116.497 37.3277C115.489 37.9808 114.563 38.2208 113.718 38.0476C112.878 37.8828 112.142 37.3133 111.51 36.3392L109.648 33.4669ZM112.126 35.9219C112.618 36.6795 113.191 37.1175 113.848 37.236C114.518 37.3574 115.252 37.159 116.052 36.6408L118.936 34.7704C119.594 34.3439 119.982 33.7847 120.101 33.0927C120.226 32.409 120.058 31.7133 119.6 31.0056L117.81 28.2457L110.305 33.112L112.126 35.9219Z" fill="white"/>
<path d="M97.2846 21.1889C97.0987 21.04 96.9919 20.8718 96.9641 20.6843C96.9503 20.4952 97.0178 20.3077 97.1667 20.1219L103.206 12.583L106.423 15.1605C106.981 15.6072 107.386 16.1095 107.638 16.6675C107.89 17.2256 107.974 17.7951 107.89 18.3762C107.806 18.9572 107.56 19.5033 107.15 20.0144L105.001 22.6977C104.25 23.6348 103.446 24.1542 102.589 24.2559C101.74 24.3638 100.862 24.0549 99.9563 23.3291L97.2846 21.1889ZM100.41 22.739C101.115 23.3035 101.797 23.5387 102.457 23.4446C103.131 23.3489 103.766 22.9294 104.362 22.186L106.511 19.5026C107.001 18.8908 107.194 18.2378 107.089 17.5435C106.992 16.8554 106.614 16.2477 105.956 15.7204L103.389 13.664L97.7963 20.6453L100.41 22.739Z" fill="white"/>
<path d="M90.2202 16.9387C90.0122 16.8227 89.879 16.6745 89.8205 16.4942C89.7755 16.31 89.8135 16.1097 89.9343 15.893L94.6327 7.47023L95.3476 7.86901L90.6347 16.3178L95.574 19.073L95.2115 19.7229L90.2202 16.9387Z" fill="white"/>
<path d="M90.3593 5.58059L91.1134 5.8991L87.0596 15.4966L86.3055 15.1781L90.3593 5.58059Z" fill="white"/>
<path d="M79.3185 12.9457C78.7356 12.7828 78.2555 12.5097 77.8785 12.1262C77.5041 11.7331 77.2594 11.2629 77.1444 10.7157C77.0416 10.1616 77.077 9.57393 77.2506 8.95276L79.2008 1.97175L79.9892 2.192L78.035 9.18735C77.8321 9.91364 77.8638 10.5561 78.1301 11.1147C78.406 11.676 78.8689 12.0474 79.5187 12.229L81.0812 12.6655C81.7311 12.847 82.3133 12.7727 82.8279 12.4426C83.3548 12.1055 83.721 11.5691 83.9265 10.8333L85.8808 3.8379L86.6692 4.05816L84.719 11.0392C84.5454 11.6603 84.2663 12.1799 83.8817 12.5979C83.5093 13.009 83.0612 13.2856 82.5373 13.4277C82.016 13.5602 81.4639 13.545 80.881 13.3822L79.3185 12.9457Z" fill="white"/>
<path d="M67.4985 11.0016C67.2712 10.9812 67.0946 10.8957 66.9687 10.7449C66.8427 10.5941 66.7899 10.4051 66.8103 10.1778L67.6731 0.556946L71.9869 0.943794C72.8072 1.01735 73.4462 1.27888 73.904 1.72839C74.3717 2.17878 74.5758 2.73505 74.5164 3.39719L74.4407 4.24217C74.4043 4.64736 74.2817 5.01493 74.0728 5.34487C73.8648 5.66493 73.6041 5.90555 73.2908 6.06674L73.2895 6.08156C73.773 6.24447 74.1461 6.52698 74.4089 6.92912C74.6726 7.32137 74.7823 7.76456 74.738 8.2587L74.6662 9.0592C74.5971 9.83005 74.2892 10.4301 73.7427 10.8592C73.197 11.2785 72.5041 11.4505 71.6641 11.3752L67.4985 11.0016ZM71.854 5.75857C72.3382 5.802 72.7428 5.67888 73.0676 5.38922C73.3925 5.09956 73.5784 4.69284 73.6253 4.16905L73.7011 3.32408C73.7401 2.88924 73.5941 2.5175 73.2632 2.20888C72.9421 1.90115 72.4949 1.72158 71.9217 1.67018L68.4233 1.35644L68.059 5.41825L71.854 5.75857ZM71.6565 10.6273C72.2692 10.6823 72.773 10.5631 73.1679 10.2697C73.5736 9.9674 73.8012 9.53952 73.8509 8.98608L73.9227 8.18558C73.9634 7.73097 73.8332 7.35069 73.5318 7.04473C73.2413 6.72977 72.8341 6.5488 72.3103 6.50183L67.9965 6.11498L67.6243 10.2657L71.6565 10.6273Z" fill="white"/>
</svg>
