<svg width="146" height="146" viewBox="0 0 146 146" fill="none" xmlns="http://www.w3.org/2000/svg">
<path d="M58.128 19.4801C57.8978 19.5413 57.6978 19.5226 57.5279 19.4241C57.3675 19.323 57.2554 19.1526 57.1917 18.9128L54.7167 9.60664L61.2037 7.88144L61.3874 8.57186L55.6914 10.0867L56.7243 13.9702L61.9887 12.5702L62.1723 13.2606L56.9079 14.6607L57.9981 18.76L63.694 17.2452L63.8814 17.95L58.128 19.4801Z" fill="white"/>
<path d="M50.4779 22.5389C50.2601 22.6352 50.0616 22.6524 49.8824 22.5906C49.7083 22.5158 49.571 22.3649 49.4707 22.138L45.5701 13.3174L46.3187 12.9863L50.2314 21.8342L55.404 19.5468L55.7049 20.2274L50.4779 22.5389Z" fill="white"/>
<path d="M44.8957 22.1021L40.9714 24.6673L41.6734 27.8358L40.9632 28.3L38.5891 17.405L38.913 17.1932C39.1123 17.0629 39.346 17.094 39.6139 17.2863L48.2139 23.5604L47.5038 24.0246L44.8957 22.1021ZM40.8004 23.9433L44.3011 21.655L39.5032 18.1233L39.4907 18.1314L40.8004 23.9433Z" fill="white"/>
<path d="M36.651 32.4048C36.1886 32.8401 35.6714 33.1158 35.0993 33.2319C34.5344 33.3412 33.964 33.2854 33.3881 33.0644C32.8054 32.8362 32.2623 32.4548 31.759 31.9202L29.5248 29.5469C29.0215 29.0123 28.6769 28.4509 28.4911 27.8627C28.3126 27.2676 28.2985 26.6881 28.4488 26.1241C28.6065 25.5532 28.9201 25.0468 29.3897 24.6047L30.5384 23.5233C30.9863 23.1016 31.4755 22.8251 32.0059 22.6937C32.5363 22.5623 33.0621 22.5851 33.5832 22.7623C34.0975 22.9323 34.5689 23.2448 34.9974 23.7L34.423 24.2407C33.9197 23.7061 33.3597 23.4224 32.743 23.3898C32.1195 23.3499 31.5512 23.5714 31.0383 24.0543L29.8896 25.1357C29.3549 25.639 29.1085 26.2458 29.1502 26.956C29.192 27.6662 29.5155 28.3428 30.1208 28.9858L32.3551 31.3591C32.9672 32.0093 33.6192 32.3835 34.3112 32.4816C35.0036 32.5657 35.6135 32.3594 36.1409 31.8629L37.3113 30.7611C37.8387 30.2646 38.0947 29.6897 38.0793 29.0365C38.0571 28.376 37.7672 27.7495 37.2095 27.1571L37.7838 26.6164C38.2531 27.1149 38.5705 27.6474 38.7359 28.214C38.9017 28.7665 38.9062 29.3141 38.7495 29.8569C38.5931 30.3857 38.2837 30.8677 37.8214 31.303L36.651 32.4048Z" fill="white"/>
<path d="M30.3469 39.6572C29.8183 40.3646 29.186 40.7715 28.4499 40.878C27.7198 40.9765 26.9931 40.7555 26.2698 40.215L26.7509 39.5712C27.2914 39.9751 27.8334 40.1448 28.3771 40.0803C28.9128 40.0099 29.3736 39.7164 29.7597 39.1998L30.7576 37.8645C31.1318 37.3637 31.3165 36.8762 31.3117 36.4019C31.3128 35.9197 31.1266 35.539 30.753 35.2598L29.9423 34.654C29.6403 34.4283 29.2988 34.3465 28.9179 34.4087C28.537 34.4709 28.1662 34.6769 27.8057 35.0268L25.8532 36.8937C25.3302 37.3947 24.7879 37.6893 24.2265 37.7776C23.671 37.858 23.1548 37.7199 22.6779 37.3636L21.9864 36.8468C21.4379 36.437 21.1512 35.9007 21.1263 35.2379C21.1013 34.5751 21.3413 33.906 21.8461 33.2303L22.8529 31.8831C23.334 31.2393 23.9148 30.8682 24.5953 30.7698C25.2818 30.6634 25.9429 30.8478 26.5788 31.323L26.0977 31.9668C25.6367 31.6223 25.1631 31.4852 24.677 31.5555C24.189 31.6119 23.7756 31.8666 23.4371 32.3197L22.4303 33.6669C22.068 34.1518 21.8922 34.6273 21.9029 35.0937C21.9117 35.5461 22.1028 35.9119 22.4764 36.1911L23.1679 36.7078C23.4858 36.9454 23.8323 37.0371 24.2072 36.9829C24.5822 36.9286 24.947 36.7305 25.3016 36.3886L27.2571 34.5426C27.8 34.0316 28.3482 33.729 28.9017 33.6348C29.4611 33.5326 29.9713 33.6538 30.4323 33.9983L31.2431 34.6041C31.7994 35.0199 32.0911 35.5661 32.1181 36.2428C32.1371 36.9135 31.8853 37.5986 31.3626 38.298L30.3469 39.6572Z" fill="white"/>
<path d="M13.7381 50.4907L12.6326 53.6045L11.9594 53.3654L14.4441 46.3665L15.1174 46.6055L14.0119 49.7193L23.1568 52.9659L22.8829 53.7374L13.7381 50.4907Z" fill="white"/>
<path d="M9.90496 63.2994L10.7766 58.4809C10.9073 57.7583 11.2126 57.2136 11.6924 56.8466C12.1624 56.4779 12.7246 56.3527 13.3787 56.4711L15.0044 56.7652C15.7172 56.8941 16.2509 57.2326 16.6055 57.7808C16.9503 58.3272 17.0529 58.986 16.9134 59.7574L16.2166 63.6093L20.3028 64.3485L20.1571 65.154L9.90496 63.2994ZM16.1785 59.6396C16.2756 59.1026 16.202 58.6456 15.9576 58.2686C15.7132 57.8916 15.342 57.6581 14.8441 57.568L13.2184 57.2739C12.7888 57.1962 12.4148 57.2849 12.0964 57.5399C11.7798 57.7851 11.5782 58.1469 11.4916 58.6253L10.7683 62.6237L15.4843 63.4768L16.1785 59.6396Z" fill="white"/>
<path d="M19.9931 72.3566C19.9924 72.9619 19.8578 73.4975 19.5894 73.9636C19.311 74.4296 18.9236 74.7913 18.4271 75.0487C17.9208 75.2962 17.3452 75.4195 16.7002 75.4187L9.4519 75.4102L9.45287 74.5916L16.7161 74.6002C17.4702 74.6011 18.0806 74.3984 18.5475 73.9921C19.0143 73.5759 19.2481 73.0305 19.2489 72.3557L19.2509 70.7334C19.2517 70.0587 19.0241 69.5177 18.5681 69.1103C18.1023 68.693 17.4873 68.4839 16.7233 68.483L9.46012 68.4744L9.46109 67.6558L16.7094 67.6644C17.3543 67.6652 17.9297 67.7948 18.4354 68.0534C18.9313 68.3021 19.3178 68.6597 19.5951 69.1264C19.8624 69.5931 19.9958 70.129 19.995 70.7343L19.9931 72.3566Z" fill="white"/>
<path d="M11.1363 86.7037L10.2563 81.8716C10.1265 81.159 10.2226 80.5515 10.5446 80.0491C10.8568 79.5484 11.34 79.2385 11.994 79.1194L13.1362 78.9114C13.6535 78.8172 14.1426 78.8996 14.6032 79.1586C15.0542 79.4194 15.4035 79.8146 15.6513 80.3444L15.6659 80.3417C15.759 80.0222 15.9502 79.7151 16.2394 79.4203C16.5286 79.1256 16.8862 78.8739 17.3121 78.6652L20.0181 77.3252L20.1675 78.1451L17.4615 79.4852C16.9726 79.7356 16.6079 80.0592 16.3675 80.456C16.1253 80.843 16.0434 81.2513 16.1216 81.6808L16.7003 84.8583L21.2396 84.0315L21.3862 84.8369L11.1363 86.7037ZM15.3161 81.3283C15.2112 80.7523 14.9755 80.3162 14.6088 80.0199C14.2324 79.7253 13.7904 79.6243 13.2828 79.7168L12.1114 79.9301C11.6819 80.0083 11.366 80.2121 11.1638 80.5414C10.9518 80.8725 10.8893 81.2772 10.9764 81.7556L11.7072 85.7677L15.9828 84.9889L15.3161 81.3283Z" fill="white"/>
<path d="M23.6217 91.1692C23.9266 91.9979 23.9231 92.7499 23.6112 93.425C23.2959 94.0909 22.7145 94.5797 21.8671 94.8915L21.5895 94.1372C22.2228 93.9042 22.6605 93.5423 22.9028 93.0513C23.1357 92.5639 23.1408 92.0175 22.9181 91.4122L22.3425 89.8478C22.1266 89.2611 21.8185 88.8406 21.4183 88.5861C21.0146 88.3223 20.5939 88.2709 20.1562 88.432L19.2064 88.7815C18.8526 88.9117 18.5979 89.1534 18.4424 89.5067C18.2869 89.8599 18.2576 90.2831 18.3544 90.7761L18.8554 93.4305C18.9904 94.1421 18.9419 94.7573 18.7099 95.2762C18.4745 95.7857 18.0774 96.1433 17.5187 96.3489L16.7086 96.647C16.066 96.8834 15.4601 96.8315 14.8909 96.4912C14.3216 96.1509 13.8913 95.5849 13.6 94.7934L13.0192 93.2151C12.7417 92.4608 12.7471 91.7716 13.0355 91.1474C13.3204 90.5139 13.8354 90.0601 14.5804 89.7859L14.8579 90.5402C14.3178 90.7389 13.9448 91.0612 13.7388 91.5071C13.5201 91.947 13.5084 92.4324 13.7037 92.9632L14.2845 94.5416C14.4935 95.1096 14.7964 95.5162 15.1932 95.7614C15.5773 96.0007 15.9882 96.0398 16.4259 95.8787L17.236 95.5806C17.6085 95.4436 17.8742 95.2031 18.0331 94.8591C18.192 94.5152 18.2248 94.1014 18.1313 93.6177L17.6495 90.972C17.5169 90.2384 17.562 89.6139 17.7847 89.0984C18.004 88.5737 18.3836 88.212 18.9237 88.0132L19.8735 87.6637C20.5254 87.4239 21.1423 87.477 21.7243 87.8232C22.297 88.1728 22.7342 88.7574 23.0357 89.5768L23.6217 91.1692Z" fill="white"/>
<path d="M16.7168 101.462L16.3453 100.733L25.6298 96.0059L26.0012 96.7354L16.7168 101.462Z" fill="white"/>
<path d="M30.9158 104.651C31.0495 104.848 31.1019 105.041 31.073 105.228C31.0304 105.413 30.9105 105.572 30.7134 105.705L22.7178 111.125L20.4045 107.713C20.0037 107.121 19.7651 106.522 19.6889 105.914C19.6127 105.307 19.7005 104.738 19.9524 104.207C20.2042 103.677 20.6012 103.228 21.1433 102.861L23.9892 100.931C24.983 100.258 25.9043 99.9989 26.7531 100.155C27.5964 100.302 28.3437 100.857 28.9951 101.818L30.9158 104.651ZM28.3875 102.247C27.8808 101.5 27.2982 101.074 26.6397 100.969C25.9674 100.861 25.237 101.075 24.4485 101.609L21.6026 103.538C20.9537 103.978 20.5769 104.545 20.4722 105.239C20.3619 105.925 20.5433 106.618 21.0166 107.316L22.8621 110.038L30.2664 105.019L28.3875 102.247Z" fill="white"/>
<path d="M43.5279 116.673C43.7168 116.819 43.827 116.985 43.8586 117.171C43.8763 117.36 43.8126 117.549 43.6676 117.738L37.7841 125.399L34.5144 122.888C33.9478 122.453 33.5326 121.959 33.269 121.406C33.0054 120.853 32.9097 120.285 32.9819 119.703C33.054 119.12 33.2895 118.569 33.6884 118.05L35.7825 115.323C36.5138 114.371 37.3068 113.835 38.1615 113.716C39.0084 113.59 39.8922 113.881 40.8129 114.588L43.5279 116.673ZM40.3715 115.188C39.6553 114.638 38.9682 114.417 38.3101 114.524C37.638 114.634 37.0119 115.066 36.4317 115.822L34.3376 118.548C33.8602 119.17 33.681 119.827 33.8001 120.519C33.9114 121.205 34.3015 121.805 34.9704 122.318L37.5791 124.322L43.0274 117.227L40.3715 115.188Z" fill="white"/>
<path d="M50.6778 120.778C50.8881 120.89 51.0243 121.035 51.0865 121.214C51.1352 121.398 51.1014 121.599 50.985 121.818L46.4601 130.335L45.7372 129.951L50.2761 121.407L45.2814 118.754L45.6305 118.097L50.6778 120.778Z" fill="white"/>
<path d="M50.7712 132.137L50.0108 131.834L53.8673 122.155L54.6277 122.458L50.7712 132.137Z" fill="white"/>
<path d="M61.6589 124.547C62.2451 124.698 62.7306 124.961 63.1154 125.337C63.4978 125.722 63.7521 126.187 63.8782 126.732C63.9923 127.284 63.969 127.872 63.8082 128.497L62.0013 135.516L61.2085 135.312L63.0192 128.278C63.2071 127.548 63.1623 126.906 62.8846 126.353C62.5972 125.798 62.1269 125.436 61.4734 125.268L59.9023 124.863C59.2489 124.695 58.6683 124.781 58.1606 125.122C57.6407 125.47 57.2856 126.014 57.0951 126.753L55.2845 133.787L54.4917 133.583L56.2986 126.564C56.4594 125.939 56.7278 125.414 57.1038 124.988C57.4677 124.57 57.9101 124.284 58.431 124.131C58.9494 123.988 59.5017 123.992 60.0879 124.143L61.6589 124.547Z" fill="white"/>
<path d="M73.5162 126.249C73.7439 126.264 73.9222 126.346 74.0513 126.495C74.1803 126.643 74.2369 126.831 74.2212 127.058L73.5556 136.695L69.2347 136.396C68.4131 136.34 67.7689 136.091 67.302 135.651C66.8252 135.21 66.6097 134.659 66.6555 133.995L66.7139 133.149C66.742 132.743 66.857 132.373 67.0592 132.039C67.2606 131.715 67.5163 131.469 67.8262 131.301L67.8273 131.286C67.3405 131.133 66.9617 130.859 66.6907 130.462C66.419 130.075 66.3003 129.634 66.3345 129.139L66.3898 128.338C66.4432 127.565 66.7387 126.959 67.2763 126.519C67.8133 126.089 68.5025 125.902 69.3439 125.961L73.5162 126.249ZM69.269 131.58C68.784 131.546 68.3821 131.678 68.0632 131.974C67.7444 132.27 67.5668 132.681 67.5306 133.205L67.4721 134.052C67.442 134.487 67.5956 134.856 67.9328 135.158C68.2601 135.459 68.7109 135.629 69.285 135.669L72.7892 135.911L73.0702 131.842L69.269 131.58ZM69.3668 126.708C68.7531 126.666 68.2518 126.795 67.863 127.097C67.4636 127.407 67.2448 127.84 67.2065 128.394L67.1511 129.196C67.1197 129.651 67.2577 130.029 67.5652 130.328C67.8621 130.637 68.2729 130.81 68.7976 130.846L73.1184 131.145L73.4056 126.987L69.3668 126.708Z" fill="white"/>
<path d="M89.6976 124.063C89.9289 124.006 90.1286 124.029 90.2965 124.131C90.4547 124.236 90.5633 124.408 90.6221 124.649L92.906 134.004L86.385 135.596L86.2156 134.902L91.9413 133.504L90.9882 129.6L85.6963 130.892L85.5268 130.198L90.8188 128.906L89.8127 124.786L84.087 126.183L83.914 125.475L89.6976 124.063Z" fill="white"/>
<path d="M97.4087 121.161C97.6284 121.07 97.8272 121.056 98.0051 121.122C98.1777 121.2 98.3118 121.354 98.4075 121.583L102.127 130.481L101.371 130.797L97.6407 121.871L92.4224 124.052L92.1354 123.365L97.4087 121.161Z" fill="white"/>
<path d="M102.981 121.712L106.957 119.228L106.32 116.046L107.039 115.596L109.19 126.538L108.862 126.743C108.66 126.869 108.427 126.833 108.163 126.635L99.6932 120.186L100.413 119.737L102.981 121.712ZM107.113 119.955L103.566 122.172L108.291 125.801L108.303 125.793L107.113 119.955Z" fill="white"/>
<path d="M111.435 111.581C111.906 111.155 112.429 110.89 113.003 110.786C113.57 110.688 114.139 110.755 114.71 110.988C115.288 111.228 115.823 111.621 116.316 112.165L118.501 114.584C118.993 115.129 119.326 115.697 119.5 116.289C119.666 116.887 119.668 117.467 119.507 118.028C119.337 118.596 119.013 119.095 118.535 119.528L117.364 120.585C116.908 120.998 116.413 121.264 115.88 121.385C115.347 121.505 114.822 121.472 114.304 121.284C113.794 121.104 113.329 120.781 112.91 120.318L113.495 119.789C113.987 120.334 114.541 120.629 115.157 120.674C115.78 120.726 116.353 120.517 116.875 120.044L118.046 118.987C118.591 118.494 118.85 117.893 118.822 117.182C118.795 116.471 118.486 115.788 117.894 115.133L115.708 112.714C115.11 112.052 114.465 111.664 113.776 111.552C113.085 111.454 112.471 111.647 111.934 112.133L110.741 113.211C110.203 113.696 109.936 114.266 109.938 114.919C109.946 115.58 110.223 116.212 110.769 116.816L110.184 117.345C109.725 116.837 109.418 116.298 109.264 115.728C109.11 115.172 109.117 114.625 109.285 114.085C109.452 113.56 109.771 113.084 110.242 112.658L111.435 111.581Z" fill="white"/>
<path d="M117.886 104.459C118.429 103.762 119.069 103.369 119.808 103.277C120.54 103.194 121.262 103.43 121.974 103.985L121.479 104.619C120.947 104.204 120.409 104.023 119.864 104.076C119.327 104.136 118.86 104.42 118.464 104.928L117.439 106.243C117.054 106.736 116.86 107.219 116.855 107.694C116.844 108.176 117.022 108.56 117.39 108.847L118.188 109.469C118.485 109.701 118.825 109.79 119.207 109.736C119.589 109.681 119.964 109.483 120.332 109.14L122.322 107.314C122.855 106.824 123.403 106.54 123.967 106.463C124.524 106.394 125.037 106.543 125.506 106.909L126.187 107.44C126.727 107.861 127.003 108.403 127.014 109.066C127.026 109.729 126.772 110.393 126.253 111.058L125.219 112.385C124.725 113.019 124.137 113.378 123.454 113.462C122.766 113.555 122.109 113.357 121.483 112.869L121.977 112.235C122.431 112.589 122.901 112.735 123.389 112.675C123.878 112.629 124.296 112.382 124.644 111.936L125.678 110.61C126.05 110.133 126.236 109.661 126.235 109.194C126.235 108.742 126.052 108.372 125.684 108.085L125.003 107.555C124.69 107.311 124.346 107.212 123.97 107.258C123.594 107.305 123.225 107.495 122.863 107.83L120.87 109.636C120.317 110.135 119.763 110.427 119.208 110.51C118.646 110.6 118.139 110.469 117.685 110.115L116.887 109.493C116.339 109.065 116.058 108.513 116.045 107.836C116.04 107.165 116.306 106.486 116.843 105.797L117.886 104.459Z" fill="white"/>
<path d="M134.713 93.9677L135.882 90.8772L136.55 91.13L133.923 98.0766L133.255 97.8238L134.424 94.7333L125.347 91.3001L125.637 90.5345L134.713 93.9677Z" fill="white"/>
<path d="M138.808 81.2402L137.838 86.0398C137.692 86.7595 137.376 87.2979 136.888 87.655C136.411 88.014 135.846 88.1276 135.195 87.9959L133.575 87.6686C132.866 87.5251 132.339 87.1757 131.996 86.6204C131.662 86.0671 131.573 85.4063 131.728 84.6379L132.504 80.8011L128.433 79.9784L128.596 79.1761L138.808 81.2402ZM132.461 84.7708C132.352 85.3057 132.417 85.7641 132.653 86.146C132.89 86.5279 133.256 86.769 133.752 86.8692L135.372 87.1965C135.8 87.283 136.175 87.2021 136.499 86.9536C136.82 86.7149 137.029 86.3573 137.126 85.8808L137.931 81.8981L133.233 80.9486L132.461 84.7708Z" fill="white"/>
<path d="M128.907 71.9783C128.92 71.3732 129.066 70.8404 129.344 70.38C129.632 69.9197 130.026 69.566 130.528 69.3188C131.039 69.0818 131.617 68.9703 132.262 68.9842L139.509 69.1412L139.491 69.9596L132.229 69.8023C131.475 69.786 130.861 69.9761 130.386 70.3728C129.911 70.7793 129.666 71.3199 129.651 71.9944L129.616 73.6164C129.601 74.2909 129.818 74.8365 130.265 75.2531C130.723 75.6799 131.333 75.9015 132.097 75.918L139.358 76.0753L139.341 76.8938L132.094 76.7368C131.449 76.7228 130.877 76.5814 130.376 76.3125C129.886 76.0538 129.507 75.6882 129.239 75.216C128.981 74.7439 128.859 74.2054 128.872 73.6002L128.907 71.9783Z" fill="white"/>
<path d="M138.056 57.8156L138.837 62.6647C138.952 63.3798 138.843 63.9852 138.511 64.4809C138.189 64.9751 137.699 65.275 137.043 65.3807L135.897 65.5653C135.378 65.6489 134.89 65.5565 134.435 65.2881C133.99 65.0182 133.648 64.6158 133.412 64.0811L133.397 64.0835C133.297 64.401 133.1 64.7042 132.805 64.9929C132.509 65.2817 132.147 65.526 131.717 65.7259L128.984 67.0103L128.851 66.1874L131.584 64.9031C132.078 64.6627 132.449 64.3466 132.698 63.9549C132.948 63.5729 133.038 63.1664 132.969 62.7353L132.455 59.5467L127.9 60.2803L127.77 59.4721L138.056 57.8156ZM133.767 63.1043C133.86 63.6823 134.087 64.1231 134.447 64.4269C134.817 64.7291 135.257 64.8391 135.767 64.7571L136.942 64.5678C137.373 64.4984 137.693 64.3011 137.902 63.976C138.121 63.6493 138.192 63.2459 138.114 62.7659L137.466 58.7397L133.175 59.4307L133.767 63.1043Z" fill="white"/>
<path d="M125.664 53.0954C125.377 52.2606 125.395 51.5088 125.721 50.8402C126.05 50.181 126.641 49.7042 127.495 49.4098L127.757 50.1696C127.119 50.3896 126.674 50.7425 126.422 51.2283C126.179 51.711 126.163 52.2571 126.373 52.8668L126.916 54.4427C127.12 55.0336 127.42 55.4604 127.815 55.7231C128.213 55.9951 128.632 56.055 129.073 55.903L130.03 55.573C130.386 55.4501 130.646 55.2136 130.809 54.8636C130.971 54.5136 131.009 54.0912 130.923 53.5963L130.476 50.9321C130.356 50.2179 130.417 49.6038 130.659 49.0898C130.905 48.5852 131.309 48.2359 131.872 48.0417L132.688 47.7603C133.335 47.5371 133.94 47.6014 134.502 47.9533C135.065 48.3052 135.483 48.8798 135.758 49.6771L136.307 51.267C136.569 52.0268 136.549 52.7158 136.248 53.3339C135.95 53.9615 135.426 54.4046 134.676 54.6635L134.413 53.9037C134.958 53.716 135.337 53.4014 135.552 52.9599C135.78 52.5245 135.801 52.0395 135.617 51.5048L135.069 49.9149C134.871 49.3427 134.577 48.93 134.185 48.6767C133.806 48.4296 133.396 48.3821 132.955 48.5341L132.139 48.8156C131.764 48.945 131.493 49.18 131.327 49.5206C131.161 49.8613 131.12 50.2743 131.204 50.7598L131.631 53.4148C131.749 54.151 131.691 54.7744 131.458 55.2852C131.228 55.8053 130.841 56.1592 130.297 56.3469L129.34 56.6769C128.683 56.9033 128.068 56.8375 127.493 56.4795C126.927 56.1182 126.502 55.5249 126.218 54.6994L125.664 53.0954Z" fill="white"/>
<path d="M132.779 42.9456L133.135 43.6825L123.756 48.2185L123.399 47.4816L132.779 42.9456Z" fill="white"/>
<path d="M118.648 39.4669C118.518 39.2671 118.47 39.0738 118.502 38.887C118.549 38.7032 118.672 38.5466 118.872 38.417L126.977 33.162L129.22 36.6213C129.608 37.2208 129.834 37.825 129.898 38.4341C129.962 39.0431 129.863 39.6102 129.6 40.1352C129.337 40.6603 128.931 41.101 128.382 41.4572L125.497 43.3277C124.489 43.9808 123.563 44.2208 122.718 44.0476C121.878 43.8828 121.142 43.3133 120.51 42.3392L118.648 39.4669ZM121.126 41.9219C121.618 42.6795 122.191 43.1175 122.848 43.236C123.518 43.3574 124.252 43.159 125.052 42.6408L127.936 40.7704C128.594 40.3439 128.982 39.7847 129.101 39.0927C129.226 38.409 129.058 37.7133 128.6 37.0056L126.81 34.2457L119.305 39.112L121.126 41.9219Z" fill="white"/>
<path d="M106.285 27.1889C106.099 27.04 105.992 26.8718 105.964 26.6843C105.95 26.4952 106.018 26.3077 106.167 26.1219L112.206 18.583L115.423 21.1605C115.981 21.6072 116.386 22.1095 116.638 22.6675C116.89 23.2256 116.974 23.7951 116.89 24.3762C116.806 24.9572 116.56 25.5033 116.15 26.0144L114.001 28.6977C113.25 29.6348 112.446 30.1542 111.589 30.2559C110.74 30.3638 109.862 30.0549 108.956 29.3291L106.285 27.1889ZM109.41 28.739C110.115 29.3035 110.797 29.5387 111.457 29.4446C112.131 29.3489 112.766 28.9294 113.362 28.186L115.511 25.5026C116.001 24.8908 116.194 24.2378 116.089 23.5435C115.992 22.8554 115.614 22.2477 114.956 21.7204L112.389 19.664L106.796 26.6453L109.41 28.739Z" fill="white"/>
<path d="M99.2202 22.9387C99.0122 22.8227 98.879 22.6745 98.8205 22.4942C98.7755 22.31 98.8135 22.1097 98.9343 21.893L103.633 13.4702L104.348 13.869L99.6347 22.3178L104.574 25.073L104.211 25.7229L99.2202 22.9387Z" fill="white"/>
<path d="M99.3593 11.5806L100.113 11.8991L96.0596 21.4966L95.3055 21.1781L99.3593 11.5806Z" fill="white"/>
<path d="M88.3185 18.9457C87.7356 18.7828 87.2555 18.5097 86.8785 18.1262C86.5041 17.7331 86.2594 17.2629 86.1444 16.7157C86.0416 16.1616 86.077 15.5739 86.2506 14.9528L88.2008 7.97175L88.9892 8.192L87.035 15.1874C86.8321 15.9136 86.8638 16.5561 87.1301 17.1147C87.406 17.676 87.8689 18.0474 88.5187 18.229L90.0812 18.6655C90.7311 18.847 91.3133 18.7727 91.8279 18.4426C92.3548 18.1055 92.721 17.5691 92.9265 16.8333L94.8808 9.8379L95.6692 10.0582L93.719 17.0392C93.5454 17.6603 93.2663 18.1799 92.8817 18.5979C92.5093 19.009 92.0612 19.2856 91.5373 19.4277C91.016 19.5602 90.4639 19.545 89.881 19.3822L88.3185 18.9457Z" fill="white"/>
<path d="M76.4985 17.0016C76.2712 16.9812 76.0946 16.8957 75.9687 16.7449C75.8427 16.5941 75.7899 16.4051 75.8103 16.1778L76.6731 6.55695L80.9869 6.94379C81.8072 7.01735 82.4462 7.27888 82.904 7.72839C83.3717 8.17878 83.5758 8.73505 83.5164 9.39719L83.4407 10.2422C83.4043 10.6474 83.2817 11.0149 83.0728 11.3449C82.8648 11.6649 82.6041 11.9056 82.2908 12.0667L82.2895 12.0816C82.773 12.2445 83.1461 12.527 83.4089 12.9291C83.6726 13.3214 83.7823 13.7646 83.738 14.2587L83.6662 15.0592C83.5971 15.8301 83.2892 16.4301 82.7427 16.8592C82.197 17.2785 81.5041 17.4505 80.6641 17.3752L76.4985 17.0016ZM80.854 11.7586C81.3382 11.802 81.7428 11.6789 82.0676 11.3892C82.3925 11.0996 82.5784 10.6928 82.6253 10.1691L82.7011 9.32408C82.7401 8.88924 82.5941 8.5175 82.2632 8.20888C81.9421 7.90115 81.4949 7.72158 80.9217 7.67018L77.4233 7.35644L77.059 11.4182L80.854 11.7586ZM80.6565 16.6273C81.2692 16.6823 81.773 16.5631 82.1679 16.2697C82.5736 15.9674 82.8012 15.5395 82.8509 14.9861L82.9227 14.1856C82.9634 13.731 82.8332 13.3507 82.5318 13.0447C82.2413 12.7298 81.8341 12.5488 81.3103 12.5018L76.9965 12.115L76.6243 16.2657L80.6565 16.6273Z" fill="white"/>
<circle cx="73.3341" cy="72.7722" r="50.2369" stroke="#272727"/>
<circle cx="73.334" cy="72.7722" r="72.1522" stroke="#272727"/>
</svg>
