<svg width="93" height="46" viewBox="0 0 93 46" fill="none" xmlns="http://www.w3.org/2000/svg">
<path d="M33.8016 43.5104L33.9267 43.8264H34.2665H40.3113H41.2885H45.0982H45.8472H52.8612H53.1279L53.2765 43.6049L59.8378 33.8204L59.9707 34.2854C60.4425 35.9367 61.1714 37.4351 62.158 38.7769L62.1629 38.7836L62.168 38.7901C63.1894 40.0864 64.3884 41.1872 65.7637 42.091L65.7637 42.091L65.7691 42.0945C67.1798 42.9958 68.7255 43.6803 70.4038 44.149C72.1231 44.6566 73.918 44.9096 75.7868 44.9096C77.8138 44.9096 79.784 44.5978 81.6955 43.9741C83.614 43.3863 85.3232 42.4834 86.8181 41.2644C88.3602 40.0379 89.5834 38.4967 90.488 36.6481L90.4898 36.6444C91.4026 34.7394 91.8501 32.5153 91.8501 29.9864C91.8501 27.7986 91.4593 25.8603 90.6614 24.1846C89.8712 22.5252 88.7816 21.1359 87.3931 20.0235C86.0441 18.8744 84.4433 18.0276 82.5995 17.4784C80.7633 16.9314 78.8147 16.6595 76.7559 16.6595C76.1308 16.6595 75.4336 16.6983 74.6655 16.7748C74.168 16.8014 73.6935 16.8543 73.2425 16.9342L73.5243 11.6736H89.2978H89.7978V11.1736V2.96433V2.46433H89.2978H64.5561H64.0766L64.0565 2.94336L63.9076 6.49074C63.5509 6.10146 63.1713 5.73197 62.769 5.38236C61.3094 4.08122 59.5785 3.09971 57.5841 2.43435C55.5898 1.73104 53.4633 1.38116 51.208 1.38116C48.9896 1.38116 46.8821 1.73137 44.8888 2.43437C42.8941 3.09981 41.1456 4.08095 39.6494 5.38023C38.1488 6.68343 36.9666 8.28131 36.1022 10.1671C35.2323 12.0651 34.8026 14.1899 34.8026 16.5324C34.8026 16.7803 34.8081 17.0259 34.8191 17.269L28.7994 2.77258L28.6714 2.46433H28.3377H18.8742H18.5418L18.4132 2.77091L1.48161 43.133L1.19073 43.8264H1.94269H12.5463H12.8931L13.0146 43.5016L15.8575 35.9022H30.7912L33.8016 43.5104ZM63.0269 29.0647C63.668 28.0939 64.2531 27.1307 64.7819 26.175C65.931 25.8163 67.1939 25.5215 68.5719 25.2919L68.58 25.2904C70.4211 24.9522 72.0431 24.7855 73.4494 24.7855C74.4053 24.7855 75.3618 24.8774 76.3194 25.0616C77.2511 25.2407 78.0635 25.5608 78.7638 26.0159L78.7758 26.0237L78.7882 26.0308C79.5124 26.4447 80.0982 27.0123 80.5494 27.7412C80.9835 28.4424 81.2157 29.3337 81.2157 30.4425C81.2157 32.2693 80.6481 33.5731 79.5761 34.4441L79.576 34.444L79.5701 34.449C78.4879 35.3567 77.1974 35.8143 75.6727 35.8143C74.1802 35.8143 72.9037 35.3909 71.8202 34.5531C70.7618 33.7054 70.0418 32.6337 69.653 31.3261L69.5093 30.8425L69.0269 30.9907L60.3046 33.6701L59.8437 33.8116L63.025 29.0677L63.0269 29.0647ZM50.0841 30.0819C50.1374 30.0743 50.1903 30.0663 50.2427 30.0579L43.8246 38.9557L38.4133 25.9243C38.5852 26.1103 38.7625 26.2919 38.9453 26.4689L38.9452 26.469L38.9512 26.4746C40.2138 27.6583 41.6728 28.5842 43.3242 29.2527L43.3242 29.2528L43.3338 29.2565C44.9895 29.8872 46.7413 30.2013 48.5856 30.2013C49.0685 30.2013 49.5682 30.1612 50.0841 30.0819ZM55.4452 12.0111L55.4504 12.0171L55.4557 12.023C56.5093 13.182 57.0359 14.5621 57.0359 16.1903C57.0359 17.9782 56.4861 19.3835 55.4151 20.4545C54.3441 21.5255 52.9389 22.0753 51.151 22.0753C49.3644 22.0753 47.983 21.5265 46.9524 20.4632C45.9094 19.3493 45.38 17.9562 45.38 16.2473C45.38 14.4135 45.9158 12.9885 46.9496 11.9203C48.0197 10.8158 49.4408 10.2483 51.265 10.2483C53.08 10.2483 54.4521 10.8467 55.4452 12.0111ZM27.7388 27.092H19.0225L23.4296 15.1928L27.7388 27.092Z" fill="white" stroke="black"/>
</svg>
